<?xml version="1.0" encoding="UTF-8" standalone="no"?><!DOCTYPE svg PUBLIC "-//W3C//DTD SVG 1.1//EN" "http://www.w3.org/Graphics/SVG/1.1/DTD/svg11.dtd"><svg width="100%" height="100%" viewBox="0 0 1314 2102" version="1.1" xmlns="http://www.w3.org/2000/svg" xmlns:xlink="http://www.w3.org/1999/xlink" xml:space="preserve" xmlns:serif="http://www.serif.com/" style="fill-rule:evenodd;clip-rule:evenodd;stroke-linejoin:round;stroke-miterlimit:2;"><rect x="0" y="1403.55" width="1031.09" height="223.244" style="fill:#e4e4e4;"/><rect x="316.709" y="957.063" width="714.382" height="223.244" style="fill:#e4e4e4;"/><rect x="525.071" y="465.926" width="506.02" height="223.244" style="fill:#e4e4e4;"/><path d="M773.914,1937.55c94.953,-7.144 178.595,-33.338 228.006,-89.298c57.151,-66.378 78.582,-156.866 78.582,-432.498l0,-961.737l208.362,0l-0,1043.59c-0,223.542 -35.719,368.502 -138.114,473.278c-92.572,92.572 -244.676,130.672 -357.191,130.672l-19.645,-164.01Zm539.06,-1806.79c0.089,1.964 0.149,3.958 0.149,5.923c-0,67.45 -55.513,122.933 -122.933,122.933c-2.739,0 -5.477,-0.089 -8.186,-0.268c-1.101,0.03 -2.203,0.03 -3.334,0.03c-68.58,0 -125.016,-56.406 -125.016,-125.017c-0,-1.19 0.029,-2.411 0.059,-3.601c-0.03,-0.923 -0.03,-1.846 -0.03,-2.769c0,-70.217 57.776,-127.993 127.994,-127.993c1.696,0 3.393,0.03 5.09,0.089c0.863,-0.029 1.726,-0.029 2.56,-0.029c67.955,-0 123.826,55.9 123.826,123.826c-0,2.292 -0.06,4.584 -0.179,6.876Z" style="fill:#fff;fill-rule:nonzero;"/></svg>