<?xml version="1.0" encoding="UTF-8" standalone="no"?><!DOCTYPE svg PUBLIC "-//W3C//DTD SVG 1.1//EN" "http://www.w3.org/Graphics/SVG/1.1/DTD/svg11.dtd"><svg width="100%" height="100%" viewBox="0 0 1334 2134" version="1.1" xmlns="http://www.w3.org/2000/svg" xmlns:xlink="http://www.w3.org/1999/xlink" xml:space="preserve" xmlns:serif="http://www.serif.com/" style="fill-rule:evenodd;clip-rule:evenodd;stroke-linejoin:round;stroke-miterlimit:2;"><rect x="0" y="1424.77" width="1046.67" height="226.618" style="fill:#666;"/><rect x="321.495" y="971.539" width="725.178" height="226.618" style="fill:#666;"/><rect x="533.005" y="472.979" width="513.667" height="226.618" style="fill:#666;"/><path d="M785.609,1966.85c96.388,-7.252 181.294,-33.842 231.452,-90.648c58.015,-67.381 79.77,-159.236 79.77,-439.034l-0,-976.27l211.51,-0l0,1059.36c0,226.92 -36.259,374.071 -140.201,480.43c-93.971,93.971 -248.373,132.647 -362.589,132.647l-19.942,-166.488Zm547.207,-1834.1c0.097,2.004 0.145,4.011 0.145,6.017c0,68.459 -56.333,124.791 -124.791,124.791c-2.77,0 -5.539,-0.092 -8.303,-0.276c-1.126,0.03 -2.251,0.045 -3.377,0.045c-69.619,-0 -126.906,-57.288 -126.906,-126.906c-0,-1.224 0.017,-2.448 0.053,-3.671c-0.021,-0.941 -0.031,-1.882 -0.031,-2.822c0,-71.277 58.652,-129.928 129.928,-129.928c1.723,-0 3.446,0.034 5.167,0.103c0.87,-0.018 1.741,-0.027 2.611,-0.027c68.956,-0 125.698,56.742 125.698,125.697c-0,2.327 -0.065,4.654 -0.194,6.977Z" style="fill-rule:nonzero;"/></svg>