<svg xmlns="http://www.w3.org/2000/svg" width="32" height="32" viewBox="0 0 32 32">
  <path fill="#FFF" d="M13.3164672,24.9553277 C14.34849,26.0306552 15.7852991,26.6975498 17.3743589,26.6975498 C19.4867237,26.6975498 21.3296865,25.5196581 22.3111111,23.7710541 C23.1639886,24.1521367 24.1080342,24.3641025 25.1013105,24.3641025 C28.9112251,24.3641025 32,21.2484331 32,17.4052421 C32,13.5615954 28.9112251,10.4459259 25.1013105,10.4459259 C24.6363532,10.4459259 24.1818803,10.4924216 23.7424501,10.5813105 C22.8781765,9.03965811 21.2312251,7.99806268 19.3408547,7.99806268 C18.5495157,7.99806268 17.8010256,8.1808547 17.1345869,8.50586894 C16.2584615,6.44501424 14.2172079,5 11.8381766,5 C9.36068375,5 7.24923075,6.56763533 6.43874643,8.76615384 C6.0845584,8.69094017 5.71760683,8.65173789 5.34108261,8.65173789 C2.39133903,8.65173789 0,11.0676923 0,14.048433 C0,16.0459259 1.07441595,17.7899714 2.67076922,18.7230769 C2.34210826,19.4793162 2.15931624,20.3139601 2.15931624,21.191453 C2.15931624,24.6193732 4.94222221,27.3981767 8.37470084,27.3981767 C10.3899715,27.3981767 12.1809686,26.44 13.3164672,24.9553277" transform="matrix(1 0 0 -1 0 32.398)"/>
</svg>
