<?xml version="1.0" encoding="UTF-8" standalone="no"?><!DOCTYPE svg PUBLIC "-//W3C//DTD SVG 1.1//EN" "http://www.w3.org/Graphics/SVG/1.1/DTD/svg11.dtd"><svg width="100%" height="100%" viewBox="0 0 1250 292" version="1.1" xmlns="http://www.w3.org/2000/svg" xmlns:xlink="http://www.w3.org/1999/xlink" xml:space="preserve" xmlns:serif="http://www.serif.com/" style="fill-rule:evenodd;clip-rule:evenodd;stroke-linejoin:round;stroke-miterlimit:2;"><g id="Layer_2"><g id="Layer_1-2"><g><rect x="0" y="196.458" width="144.333" height="31.25" style="fill:url(#_Linear1);"/><rect x="44.333" y="133.958" width="100" height="31.25" style="fill:url(#_Linear2);"/><rect x="73.5" y="65.208" width="70.833" height="31.25" style="fill:url(#_Linear3);"/><path d="M108.333,271.208c13.292,-1 25,-4.666 31.917,-12.5c8,-9.291 11,-21.958 11,-60.541l0,-134.625l29.167,-0l-0,146.083c-0,31.292 -5,51.583 -19.334,66.25c-12.958,12.958 -34.25,18.292 -50,18.292l-2.75,-22.959Zm75.459,-252.916c0.013,0.276 0.02,0.553 0.02,0.829c-0,9.441 -7.768,17.209 -17.209,17.209c-0.382,-0 -0.764,-0.013 -1.145,-0.038c-0.155,0.004 -0.31,0.006 -0.465,0.006c-9.601,-0 -17.5,-7.9 -17.5,-17.5c-0,-0.169 0.002,-0.338 0.007,-0.506c-0.003,-0.13 -0.004,-0.26 -0.004,-0.39c-0,-9.828 8.088,-17.916 17.916,-17.916c0.238,-0 0.476,0.005 0.713,0.014c0.12,-0.002 0.24,-0.004 0.36,-0.004c9.509,0 17.333,7.825 17.333,17.334c0,0.32 -0.009,0.641 -0.026,0.962Z" style="fill:url(#_Linear4);fill-rule:nonzero;"/><path d="M224.708,149.417c0.667,39.583 25.959,55.916 55.25,55.916c15.289,0.478 30.5,-2.365 44.584,-8.333l5,20.833c-16.957,7.072 -35.218,10.48 -53.584,10c-49.583,0 -79.166,-32.625 -79.166,-81.208c-0,-48.583 28.625,-86.833 75.541,-86.833c52.584,-0 66.667,46.25 66.667,75.833c-0.051,4.572 -0.385,9.136 -1,13.667l-113.292,0.125Zm85.834,-20.834c0.333,-18.666 -7.625,-47.583 -40.584,-47.583c-29.625,-0.125 -42.583,27.333 -44.958,47.458l85.542,0.125Z" style="fill:url(#_Linear5);fill-rule:nonzero;"/><path d="M390.417,17.292l-0,46.25l41.958,-0l0,22.291l-41.958,0l-0,86.875c-0,19.959 5.666,31.459 22.083,31.459c5.73,0.082 11.446,-0.59 17,-2l1.333,21.958c-8.322,2.977 -17.123,4.389 -25.958,4.167c-13.667,-0 -24.625,-4.167 -31.625,-12.5c-8.333,-8.625 -11.333,-22.959 -11.333,-41.917l-0,-88.042l-25,0l-0,-22.291l25,-0l-0,-38.542l28.5,-7.708Z" style="fill:url(#_Linear6);fill-rule:nonzero;"/><path d="M441.333,194.667c11.603,7.265 24.941,11.294 38.625,11.666c21.292,0 31.25,-10.666 31.25,-23.958c0,-14 -8.333,-21.667 -29.916,-29.625c-29.167,-10.333 -42.625,-26.292 -42.625,-45.583c-0,-25.959 20.833,-47.25 55.583,-47.25c13.844,-0.144 27.494,3.287 39.625,9.958l-7.333,21.292c-9.906,-6.105 -21.323,-9.323 -32.959,-9.292c-17.291,0 -26.958,9.958 -26.958,21.958c0,13.292 9.667,19.292 30.625,27.292c27.958,10.625 42.25,24.625 42.25,48.583c0,28.292 -21.958,48.25 -60.208,48.25c-15.778,0.29 -31.366,-3.5 -45.25,-11l7.291,-22.291Z" style="fill:url(#_Linear7);fill-rule:nonzero;"/><path d="M592.417,17.292l-0,46.25l41.958,-0l0,22.291l-41.958,0l-0,86.875c-0,19.959 5.666,31.292 21.958,31.292c5.73,0.083 11.446,-0.59 17,-2l1.333,21.958c-8.322,2.977 -17.123,4.39 -25.958,4.167c-13.667,0 -24.625,-4.167 -31.625,-12.5c-8.333,-8.625 -11.333,-22.958 -11.333,-41.917l-0,-87.875l-25,0l-0,-22.291l25,-0l-0,-38.542l28.625,-7.708Z" style="fill:url(#_Linear8);fill-rule:nonzero;"/><path d="M647.333,113.792c0,-18.959 -0.333,-35.25 -1.333,-50.25l25.625,-0l1,31.625l1.333,-0c7.334,-21.625 25,-35.25 44.584,-35.25c2.809,-0.038 5.612,0.299 8.333,1l0,27.583c-3.284,-0.713 -6.639,-1.049 -10,-1c-20.833,-0 -35.25,15.667 -39.25,37.5c-0.821,4.497 -1.267,9.054 -1.333,13.625l-0,86l-28.959,0l0,-110.833Z" style="fill:url(#_Linear9);fill-rule:nonzero;"/><path d="M749.167,149.417c0.666,39.583 25.958,55.916 55.25,55.916c15.288,0.478 30.5,-2.365 44.583,-8.333l5,20.833c-16.956,7.072 -35.218,10.48 -53.583,10c-49.584,0 -79.167,-32.625 -79.167,-81.208c-0,-48.583 28.75,-86.708 75.5,-86.708c52.583,-0 66.667,46.25 66.667,75.833c-0.051,4.572 -0.385,9.136 -1,13.667l-113.25,-0Zm85.875,-20.834c0.333,-18.666 -7.667,-47.583 -40.625,-47.583c-29.625,0 -42.584,27.292 -44.917,47.583l85.542,0Z" style="fill:url(#_Linear10);fill-rule:nonzero;"/><path d="M968.792,224.625l-2.125,-20.458l-1,-0c-11.592,15.437 -29.95,24.367 -49.25,23.958c-32.584,0 -49.25,-22.958 -49.25,-46.25c-0,-38.958 34.625,-60.25 96.833,-59.917l0,-3.333c0,-13.292 -3.625,-37.25 -36.583,-37.25c-14.808,0.032 -29.321,4.172 -41.917,11.958l-6.667,-19.291c15.962,-9.599 34.293,-14.55 52.917,-14.292c49.25,-0 61.208,33.583 61.208,65.875l0,60.375c-0.214,12.927 0.678,25.85 2.667,38.625l-26.833,0Zm-4.167,-82.208c-31.917,-0.667 -68.208,5 -68.208,36.291c-0,18.959 12.5,27.959 27.625,27.959c17.424,0.456 33.244,-10.491 38.958,-26.959c1.004,-3.012 1.551,-6.158 1.625,-9.333l0,-27.958Z" style="fill:url(#_Linear11);fill-rule:nonzero;"/><path d="M1020.04,107.167c-0,-16.667 -0.334,-30.292 -1.334,-43.625l25.625,-0l1.334,25.958l1,0c9.848,-18.648 29.502,-30.142 50.583,-29.583c20.514,-0.232 38.974,12.828 45.583,32.25l0.667,-0c4.485,-8.121 10.616,-15.217 18,-20.834c10.171,-7.811 22.769,-11.809 35.583,-11.291c21.292,-0 52.917,13.958 52.917,69.875l0,94.708l-28.625,0l0,-91.292c0,-30.958 -11.292,-49.583 -34.917,-49.583c-16.666,0 -29.625,12.292 -34.625,26.583c-1.529,4.74 -2.316,9.687 -2.333,14.667l0,99.625l-28.667,0l0,-96.5c0,-25.625 -11.291,-44.25 -33.583,-44.25c-18.333,0 -31.625,14.625 -36.292,29.167c-1.636,4.597 -2.427,9.454 -2.333,14.333l-0,97.25l-28.625,0l0.042,-117.458Z" style="fill:url(#_Linear12);fill-rule:nonzero;"/></g></g><g transform="matrix(81.0573,0,0,81.0573,1253.72,293.177)"></g><text x="1066px" y="293.177px" style="font-family:'Arial-Black', 'Arial Black', sans-serif;font-weight:900;font-size:81.057px;fill:#0e7490;">PR<tspan x="1186.2px " y="293.177px ">O</tspan></text></g><defs><linearGradient id="_Linear1" x1="0" y1="0" x2="1" y2="0" gradientUnits="userSpaceOnUse" gradientTransform="matrix(1250,0,0,294.181,0,147.076)"><stop offset="0" style="stop-color:#0d9488;stop-opacity:1"/><stop offset="1" style="stop-color:#0e7490;stop-opacity:1"/></linearGradient><linearGradient id="_Linear2" x1="0" y1="0" x2="1" y2="0" gradientUnits="userSpaceOnUse" gradientTransform="matrix(1250,0,0,294.181,0,147.076)"><stop offset="0" style="stop-color:#0d9488;stop-opacity:1"/><stop offset="1" style="stop-color:#0e7490;stop-opacity:1"/></linearGradient><linearGradient id="_Linear3" x1="0" y1="0" x2="1" y2="0" gradientUnits="userSpaceOnUse" gradientTransform="matrix(1250,0,0,294.181,0,147.076)"><stop offset="0" style="stop-color:#0d9488;stop-opacity:1"/><stop offset="1" style="stop-color:#0e7490;stop-opacity:1"/></linearGradient><linearGradient id="_Linear4" x1="0" y1="0" x2="1" y2="0" gradientUnits="userSpaceOnUse" gradientTransform="matrix(1250,0,0,294.181,0,147.076)"><stop offset="0" style="stop-color:#0d9488;stop-opacity:1"/><stop offset="1" style="stop-color:#0e7490;stop-opacity:1"/></linearGradient><linearGradient id="_Linear5" x1="0" y1="0" x2="1" y2="0" gradientUnits="userSpaceOnUse" gradientTransform="matrix(1250,0,0,294.181,0,147.076)"><stop offset="0" style="stop-color:#0d9488;stop-opacity:1"/><stop offset="1" style="stop-color:#0e7490;stop-opacity:1"/></linearGradient><linearGradient id="_Linear6" x1="0" y1="0" x2="1" y2="0" gradientUnits="userSpaceOnUse" gradientTransform="matrix(1250,0,0,294.181,0,147.076)"><stop offset="0" style="stop-color:#0d9488;stop-opacity:1"/><stop offset="1" style="stop-color:#0e7490;stop-opacity:1"/></linearGradient><linearGradient id="_Linear7" x1="0" y1="0" x2="1" y2="0" gradientUnits="userSpaceOnUse" gradientTransform="matrix(1250,0,0,294.181,0,147.076)"><stop offset="0" style="stop-color:#0d9488;stop-opacity:1"/><stop offset="1" style="stop-color:#0e7490;stop-opacity:1"/></linearGradient><linearGradient id="_Linear8" x1="0" y1="0" x2="1" y2="0" gradientUnits="userSpaceOnUse" gradientTransform="matrix(1250,0,0,294.181,0,147.076)"><stop offset="0" style="stop-color:#0d9488;stop-opacity:1"/><stop offset="1" style="stop-color:#0e7490;stop-opacity:1"/></linearGradient><linearGradient id="_Linear9" x1="0" y1="0" x2="1" y2="0" gradientUnits="userSpaceOnUse" gradientTransform="matrix(1250,0,0,294.181,0,147.076)"><stop offset="0" style="stop-color:#0d9488;stop-opacity:1"/><stop offset="1" style="stop-color:#0e7490;stop-opacity:1"/></linearGradient><linearGradient id="_Linear10" x1="0" y1="0" x2="1" y2="0" gradientUnits="userSpaceOnUse" gradientTransform="matrix(1250,0,0,294.181,0,147.076)"><stop offset="0" style="stop-color:#0d9488;stop-opacity:1"/><stop offset="1" style="stop-color:#0e7490;stop-opacity:1"/></linearGradient><linearGradient id="_Linear11" x1="0" y1="0" x2="1" y2="0" gradientUnits="userSpaceOnUse" gradientTransform="matrix(1250,0,0,294.181,0,147.076)"><stop offset="0" style="stop-color:#0d9488;stop-opacity:1"/><stop offset="1" style="stop-color:#0e7490;stop-opacity:1"/></linearGradient><linearGradient id="_Linear12" x1="0" y1="0" x2="1" y2="0" gradientUnits="userSpaceOnUse" gradientTransform="matrix(1250,0,0,294.181,0,147.076)"><stop offset="0" style="stop-color:#0d9488;stop-opacity:1"/><stop offset="1" style="stop-color:#0e7490;stop-opacity:1"/></linearGradient></defs></svg>