<?xml version="1.0" standalone="no"?>
<!DOCTYPE svg PUBLIC "-//W3C//DTD SVG 20010904//EN"
 "http://www.w3.org/TR/2001/REC-SVG-20010904/DTD/svg10.dtd">
<svg version="1.0" xmlns="http://www.w3.org/2000/svg"
 width="700.000000pt" height="700.000000pt" viewBox="0 0 700.000000 700.000000"
 preserveAspectRatio="xMidYMid meet">
<metadata>
Created by potrace 1.14, written by Peter Selinger 2001-2017
</metadata>
<g transform="translate(0.000000,700.000000) scale(0.100000,-0.100000)"
fill="#000000" stroke="none">
<path d="M5135 6985 c-76 -24 -140 -63 -191 -117 -83 -87 -120 -179 -122 -295
-2 -283 227 -475 515 -431 115 17 227 93 291 196 54 89 71 232 41 351 -34 133
-131 239 -263 288 -54 20 -218 25 -271 8z"/>
<path d="M4909 3748 c0 -959 -2 -1785 -4 -1836 -3 -101 -15 -298 -20 -347 -9
-98 -17 -162 -20 -175 -3 -8 -7 -35 -10 -59 -3 -23 -7 -46 -10 -50 -2 -4 -7
-21 -9 -38 -28 -157 -136 -361 -239 -450 -80 -69 -199 -134 -317 -172 -99 -33
-270 -65 -363 -70 -30 -1 -30 3 -12 -131 2 -19 7 -57 10 -85 7 -65 26 -214 30
-240 2 -11 4 -37 4 -57 l1 -37 73 4 c121 5 208 16 307 36 52 11 105 22 117 25
35 7 202 63 242 81 137 62 187 88 271 143 200 131 375 350 472 590 82 203 124
389 153 675 15 147 19 542 19 2135 l1 1795 -348 3 -347 2 -1 -1742z"/>
<path d="M3060 5077 l0 -372 843 0 842 0 1 360 c0 198 -1 366 -4 373 -3 9
-181 12 -843 12 l-839 0 0 -373z"/>
<path d="M2369 3800 c-3 -49 -4 -707 -1 -717 3 -10 250 -13 1191 -13 l1187 0
0 370 c0 247 -4 370 -11 371 -5 0 -540 1 -1188 2 -1040 2 -1177 0 -1178 -13z"/>
<path d="M1316 2321 c-2 -3 -4 -171 -5 -372 l-1 -366 1714 0 c1560 0 1715 2
1718 16 2 9 4 176 4 371 l-1 355 -1713 1 c-942 0 -1715 -2 -1716 -5z"/>
</g>
</svg>
