<svg xmlns="http://www.w3.org/2000/svg" viewBox="0 0 383.63 415.85">
  <defs>
    <style>.cls-1{fill:#212552;}.cls-2{fill:#92d6e9;}.cls-15,.cls-3,.cls-7{fill:#0a1e2b;stroke:#0a1e2b;}.cls-10,.cls-12,.cls-13,.cls-15,.cls-3,.cls-4,.cls-7{stroke-linecap:round;stroke-linejoin:round;}.cls-10,.cls-3,.cls-4,.cls-7{stroke-width:6px;}.cls-3{opacity:0.3;}.cls-12,.cls-13,.cls-4{fill:none;stroke:#212552;}.cls-5{fill:#cbedf9;}.cls-6{fill:#e8f9ff;}.cls-15,.cls-7{opacity:0.23;}.cls-8{fill:#53adbc;}.cls-9{fill:#ffe07d;}.cls-10{fill:#9fbdca;stroke:#9fbdca;}.cls-11{fill:#3ca4b5;}.cls-12{stroke-width:10px;}.cls-13{stroke-width:9px;}.cls-14{fill:#ffea9e;}.cls-15{stroke-width:8px;}</style>
  </defs>
  <g id="Layer_2" data-name="Layer 2">
    <g id="Layer_1-2" data-name="Layer 1">
      <ellipse class="cls-1" cx="182.59" cy="393.05" rx="182.59" ry="22.8" />
      <path class="cls-2" d="M142.12,377v-7.37a6,6,0,0,0-6-6h-66a6,6,0,0,0-6,6v22a6,6,0,0,0,6,6H114a18,18,0,0,0,12.76-5.29Z" />
      <path class="cls-3" d="M136.12,363.63h-66a6,6,0,0,0-6,6v20.42h64.95L142.12,377v-7.37A6,6,0,0,0,136.12,363.63Z" />
      <path class="cls-2" d="M223.07,377v-7.37a6,6,0,0,1,6-6h66a6,6,0,0,1,6,6v22a6,6,0,0,1-6,6h-43.9a18,18,0,0,1-12.75-5.29Z" />
      <path class="cls-3" d="M295.07,363.63h-66a6,6,0,0,0-6,6V377l13.05,13.05h64.95V369.63A6,6,0,0,0,295.07,363.63Z" />
      <path class="cls-4" d="M142.12,377v-7.37a6,6,0,0,0-6-6h-66a6,6,0,0,0-6,6v22a6,6,0,0,0,6,6H114a18,18,0,0,0,12.76-5.29Z" />
      <path class="cls-4" d="M223.07,377v-7.37a6,6,0,0,1,6-6h66a6,6,0,0,1,6,6v22a6,6,0,0,1-6,6h-43.9a18,18,0,0,1-12.75-5.29Z" />
      <rect class="cls-5" x="12.59" y="37.05" width="340" height="340" rx="40" />
      <path class="cls-6" d="M312.59,37.05h-260a40,40,0,0,0-40,40v23a40,40,0,0,1,40-40h260a40,40,0,0,1,40,40v-23A40,40,0,0,0,312.59,37.05Z" />
      <path class="cls-2" d="M312.59,354.05h-260a40,40,0,0,1-40-40v23a40,40,0,0,0,40,40h260a40,40,0,0,0,40-40v-23A40,40,0,0,1,312.59,354.05Z" />
      <polygon class="cls-7" points="51.3 336.16 87.73 377.05 155.64 377.05 199.59 376.84 190.93 311.68 51.3 336.16" />
      <rect class="cls-2" x="48.59" y="73.05" width="268" height="268" rx="16" transform="translate(389.64 24.45) rotate(90)" />
      <path class="cls-4" d="M316.59,89.05v236a16,16,0,0,1-16,16h-236a16,16,0,0,1-16-16v-236a16,16,0,0,1,16-16H192a13.39,13.39,0,0,1,7.62,11.89V95.26h82.63A9.46,9.46,0,0,1,288.91,98l20.72-22.18A16,16,0,0,1,316.59,89.05Z" />
      <path class="cls-8" d="M309.63,75.85,288.91,98a9.46,9.46,0,0,0-6.69-2.77H199.59V84.94A13.39,13.39,0,0,0,192,73.05H300.59A15.89,15.89,0,0,1,309.63,75.85Z" />
      <path class="cls-4" d="M309.63,75.85,288.91,98a9.46,9.46,0,0,0-6.69-2.77H199.59V84.94A13.39,13.39,0,0,0,192,73.05H300.59A15.89,15.89,0,0,1,309.63,75.85Z" />
      <path class="cls-4" d="M288.91,98a9.44,9.44,0,0,1,2.77,6.69V303.61a10.44,10.44,0,0,1-10.44,10.44H199.59" />
      <path class="cls-9" d="M196,277.64H162.71c-6.21,0-10-5.14-8.53-10.86l4.9-19.64c.84-3.36,4.87-5.9,9.06-5.9h22.45c4.19,0,8.22,2.54,9.06,5.9l4.91,19.64C206,272.5,202.23,277.64,196,277.64Z" />
      <path class="cls-4" d="M196,277.64H162.71c-6.21,0-10-5.14-8.53-10.86l4.9-19.64c.84-3.36,4.87-5.9,9.06-5.9h22.45c4.19,0,8.22,2.54,9.06,5.9l4.91,19.64C206,272.5,202.23,277.64,196,277.64Z" />
      <path class="cls-7" d="M300.59,73.05H202.66l-.44,244.44L264.05,335l47.07.21q2.75-96.46,5.47-192.93V99.59C316.59,84.93,309.43,73.05,300.59,73.05Z" />
      <path class="cls-2" d="M61.54,328.12V85.89c0-9.07,5.07-17.44,11.42-18.71L153.87,51c8.06-1.61,14.72,5.55,14.72,16V347c0,10.48-6.66,17.65-14.72,16L73,346.82C66.61,345.55,61.54,337.19,61.54,328.12Z" />
      <path class="cls-4" d="M61.54,328.12V85.89c0-9.07,5.07-17.44,11.42-18.71L153.87,51c8.06-1.61,14.72,5.55,14.72,16V347c0,10.48-6.66,17.65-14.72,16L73,346.82C66.61,345.55,61.54,337.19,61.54,328.12Z" />
      <path class="cls-5" d="M48.59,325.05v-236c0-8.84,4.94-17.16,11.15-18.61l80.85-18.88c8.23-1.92,15,5,15,15.47v280c0,10.49-6.82,17.39-15,15.47L59.74,343.65C53.53,342.2,48.59,333.88,48.59,325.05Z" />
      <path class="cls-2" d="M140.59,346.53,59.74,327.65c-6.21-1.45-11.15-9.77-11.15-18.6v16c0,8.83,4.94,17.15,11.15,18.6l80.85,18.88c8.23,1.92,15-5,15-15.47v-16C155.64,341.55,148.82,348.45,140.59,346.53Z" />
      <path class="cls-6" d="M140.59,51.56,59.74,70.44c-6.21,1.45-11.15,9.77-11.15,18.61v12c0-8.84,4.94-17.16,11.15-18.61l80.85-18.88c8.23-1.92,15,5,15,15.47V67C155.64,56.55,148.82,49.64,140.59,51.56Z" />
      <ellipse class="cls-1" cx="143.09" cy="125.34" rx="4.73" ry="10.58" />
      <path class="cls-4" d="M48.59,325.05v-236c0-8.84,4.94-17.16,11.15-18.61l80.85-18.88c8.23-1.92,15,5,15,15.47v280c0,10.49-6.82,17.39-15,15.47L59.74,343.65C53.53,342.2,48.59,333.88,48.59,325.05Z" />
      <ellipse class="cls-10" cx="98.19" cy="214.19" rx="27.9" ry="54.64" />
      <ellipse class="cls-10" cx="97.19" cy="265.87" rx="8.56" ry="7.77" />
      <ellipse class="cls-5" cx="99.35" cy="207.59" rx="29.75" ry="55.5" />
      <ellipse class="cls-2" cx="97.19" cy="207.59" rx="23.4" ry="46.04" />
      <polyline class="cls-7" points="71.26 207.59 115.07 209.25 102.12 262.85 87.73 258.7 69.59 207.59" />
      <ellipse class="cls-4" cx="99.35" cy="207.59" rx="29.75" ry="55.5" />
      <rect class="cls-7" x="40.59" y="129.55" width="16" height="40" rx="8" />
      <rect class="cls-7" x="40.59" y="260.05" width="16" height="40" rx="8" />
      <rect class="cls-2" x="40.59" y="121.55" width="16" height="40" rx="8" />
      <rect class="cls-2" x="40.59" y="252.55" width="16" height="40" rx="8" />
      <rect class="cls-4" x="40.59" y="121.55" width="16" height="40" rx="8" />
      <rect class="cls-4" x="40.59" y="252.55" width="16" height="40" rx="8" />
      <line class="cls-4" x1="380.63" y1="54.88" x2="360.37" y2="52.08" />
      <line class="cls-4" x1="332.49" y1="23.23" x2="329.48" y2="3" />
      <line class="cls-4" x1="352.53" y1="30.46" x2="366.99" y2="16" />
      <path class="cls-11" d="M94,187.05H78.27v41.07H94c6.86,0,12.44-9.21,12.44-20.53S100.81,187.05,94,187.05Z" />
      <path class="cls-4" d="M94,187.05H78.27v41.07H94c6.86,0,12.44-9.21,12.44-20.53S100.81,187.05,94,187.05Z" />
      <ellipse class="cls-12" cx="93.95" cy="207.59" rx="12.44" ry="20.54" />
      <line class="cls-13" x1="113.59" y1="207.59" x2="93.09" y2="207.59" />
      <polyline class="cls-4" points="81.52 187.05 93.95 187.05 93.95 170.98 81.52 187.05" />
      <polyline class="cls-1" points="81.52 187.05 93.95 187.05 93.95 170.98 81.52 187.05" />
      <polyline class="cls-1" points="81.52 228.12 93.95 228.12 93.95 244.2 81.52 228.12" />
      <polyline class="cls-4" points="81.52 228.12 93.95 228.12 93.95 244.2 81.52 228.12" />
      <ellipse class="cls-14" cx="78.27" cy="207.59" rx="12.44" ry="20.54" />
      <ellipse class="cls-9" cx="77.27" cy="207.59" rx="6.06" ry="10" />
      <ellipse class="cls-4" cx="78.27" cy="207.59" rx="12.44" ry="20.54" />
      <path class="cls-5" d="M187.87,342.19l-20.28,2V69.92l20.28,2a13.29,13.29,0,0,1,11.72,13V329.15A13.29,13.29,0,0,1,187.87,342.19Z" />
      <path class="cls-7" d="M200.24,174.19v-28.6H177.92v30.3h.14a11.16,11.16,0,0,0,22.32,0A11.81,11.81,0,0,0,200.24,174.19Z" />
      <path class="cls-4" d="M199.59,84.94V329.15a13.41,13.41,0,0,1-7.4,11.9,11.68,11.68,0,0,1-3.95,1.14l-19.65,2V69.92l19.65,2a11.57,11.57,0,0,1,4,1.15A13.42,13.42,0,0,1,199.59,84.94Z" />
      <line class="cls-4" x1="287.85" y1="311.68" x2="312.1" y2="336.16" />
      <path class="cls-2" d="M189.52,132.39a11.16,11.16,0,0,0,0,22.31h10.86V132.39Z" />
      <path class="cls-4" d="M189.52,132.39a11.16,11.16,0,0,0,0,22.31h10.86V132.39Z" />
      <circle class="cls-5" cx="200.38" cy="143.55" r="11.16" />
      <circle class="cls-4" cx="200.38" cy="143.55" r="11.16" />
      <circle class="cls-4" cx="200.38" cy="143.55" r="11.16" />
      <path class="cls-7" d="M200.24,301.84V273.25H177.92v30.3h.14a11.16,11.16,0,0,0,22.32,0A12.07,12.07,0,0,0,200.24,301.84Z" />
      <path class="cls-2" d="M189.52,260.05a11.16,11.16,0,0,0,0,22.31h10.86V260.05Z" />
      <path class="cls-4" d="M189.52,260.05a11.16,11.16,0,0,0,0,22.31h10.86V260.05Z" />
      <circle class="cls-5" cx="200.38" cy="271.2" r="11.16" />
      <circle class="cls-4" cx="200.38" cy="271.2" r="11.16" />
      <path class="cls-2" d="M133.59,279.84a4,4,0,0,1-4-4v-142a4,4,0,0,1,4-4h8.16v-9h-9.16a12,12,0,0,0-12,12v144a12,12,0,0,0,12,12h9.16v-9Z" />
      <ellipse class="cls-1" cx="143.09" cy="283.67" rx="4.73" ry="10.58" />
      <path class="cls-4" d="M133.59,279.84a4,4,0,0,1-4-4v-142a4,4,0,0,1,4-4h8.16v-9h-9.16a12,12,0,0,0-12,12v144a12,12,0,0,0,12,12h9.16v-9Z" />
      <rect class="cls-4" x="12.59" y="37.05" width="340" height="340" rx="40" />
      <line class="cls-15" x1="142.12" y1="134.09" x2="143.09" y2="311.68" />
      <line class="cls-4" x1="141.18" y1="51.24" x2="156.68" y2="50.78" />
      <line class="cls-4" x1="142.6" y1="362.82" x2="156.94" y2="363.21" />
    </g>
  </g>
</svg>
